<svg id="Layer_1" data-name="Layer 1" xmlns="http://www.w3.org/2000/svg" viewBox="0 0 700 700"><defs><style>.cls-1{fill:#a6d1ca;}</style></defs><path class="cls-1" d="M350,221.67C280,221.67,221.67,280,221.67,350S280,478.33,350,478.33,478.33,420,478.33,350,420,221.67,350,221.67Zm0-35c14,0,23.33-9.33,23.33-23.33V140c0-14-9.33-23.33-23.33-23.33S326.67,126,326.67,140v23.34C326.67,177.34,336,186.67,350,186.67Zm0,326.66c-14,0-23.33,9.33-23.33,23.33V560c0,14,9.33,23.33,23.33,23.33S373.33,574,373.33,560V536.66c0-14-9.33-23.33-23.33-23.33ZM560,326.67H536.67c-14,0-23.34,9.33-23.34,23.33s9.34,23.34,23.34,23.34H560c14,0,23.33-9.34,23.33-23.34S574,326.67,560,326.67ZM186.67,350c0-14-9.33-23.33-23.33-23.33H140c-14,0-23.33,9.33-23.33,23.33S126,373.34,140,373.34h23.33C177.33,373.34,186.67,364,186.67,350ZM499.33,466.67c-9.33-9.33-23.33-9.33-32.67,0s-9.33,23.34,0,32.67L483,515.67c4.67,4.67,9.33,7,16.33,7s11.67-2.33,16.34-7c9.33-9.33,9.33-23.33,0-32.66ZM200.67,233.33c4.67,4.67,9.33,7,16.33,7s11.67-2.33,16.33-7c9.33-9.33,9.33-23.33,0-32.66L217,184.33c-9.33-9.33-23.33-9.33-32.67,0s-9.33,23.34,0,32.67Zm0,233.34L184.34,483c-4.67,4.66-7,9.33-7,16.33,0,14,9.33,23.33,23.33,23.33,7,0,11.67-2.33,16.33-7l16.33-16.33c9.33-9.33,9.33-23.33,0-32.67s-23.33-9.33-32.66,0ZM483,240.33c7,0,11.67-2.33,16.33-7L515.66,217c9.33-9.33,9.33-23.33,0-32.67s-23.33-9.33-32.67,0l-16.33,16.34c-4.67,4.66-7,9.33-7,16.33C459.67,231,469,240.33,483,240.33Z"/></svg>